HIERARCHY
ROOT Pelvis
{
	OFFSET 0.000000 0.000000 0.000000
	CHANNELS 6 Xposition Yposition Zposition Xrotation Yrotation Zrotation
	JOINT LeftUpLeg_virtual
	{
		OFFSET 0.000000 0.000000 0.000000
		CHANNELS 3 Xrotation Yrotation Zrotation
		JOINT LeftUpLeg
		{
			OFFSET 18.735201 -5.666702 -4.541200
			CHANNELS 3 Xrotation Yrotation Zrotation
			JOINT LeftLeg
			{
				OFFSET -0.021200 -31.938179 0.493100
				CHANNELS 3 Xrotation Yrotation Zrotation
				JOINT LeftFoot
				{
					OFFSET 0.021200 -31.938179 -4.336299
					CHANNELS 3 Xrotation Yrotation Zrotation
					JOINT LeftToeBase
					{
						OFFSET 0.943001 -26.722000 15.023500
						CHANNELS 3 Xrotation Yrotation Zrotation
						End Site
						{
							OFFSET 0 0 0
						}
					}
				}
			}
		}
	}
	JOINT RightUpLeg_virtual
	{
		OFFSET 0.000000 0.000000 0.000000
		CHANNELS 3 Xrotation Yrotation Zrotation
		JOINT RightUpLeg
		{
			OFFSET -18.735201 -5.666702 -4.541200
			CHANNELS 3 Xrotation Yrotation Zrotation
			JOINT RightLeg
			{
				OFFSET 0.018946 -31.938133 0.493100
				CHANNELS 3 Xrotation Yrotation Zrotation
				JOINT RightFoot
				{
					OFFSET -0.018946 -31.938126 -4.336299
					CHANNELS 3 Xrotation Yrotation Zrotation
					JOINT RightToeBase
					{
						OFFSET -0.943001 -26.722004 15.023500
						CHANNELS 3 Xrotation Yrotation Zrotation
						End Site
						{
							OFFSET 0 0 0
						}
					}
				}
			}
		}
	}
	JOINT Hips_virtual
	{
		OFFSET 0.000000 0.000000 0.000000
		CHANNELS 3 Xrotation Yrotation Zrotation
		JOINT Hips
		{
			OFFSET -0.000000 -0.000000 -0.000000
			CHANNELS 3 Xrotation Yrotation Zrotation
			JOINT Spine
			{
				OFFSET 0.000000 10.199997 -0.299500
				CHANNELS 3 Xrotation Yrotation Zrotation
				JOINT Spine1
				{
					OFFSET 0.000000 11.900002 -1.516600
					CHANNELS 3 Xrotation Yrotation Zrotation
					JOINT Spine2
					{
						OFFSET 0.000000 13.600006 -2.842500
						CHANNELS 3 Xrotation Yrotation Zrotation
						JOINT Neck_virtual
						{
							OFFSET 0.000000 0.000000 0.000000
							CHANNELS 3 Xrotation Yrotation Zrotation
							JOINT Neck
							{
								OFFSET 0.000000 9.624100 -2.890100
								CHANNELS 3 Xrotation Yrotation Zrotation
								JOINT Head
								{
									OFFSET 0.000000 14.068802 -1.351900
									CHANNELS 3 Xrotation Yrotation Zrotation
									End Site
									{
										OFFSET 0 0 0
									}
								}
							}
						}
						JOINT LeftShoulder_virtual
						{
							OFFSET 0.000000 0.000000 0.000000
							CHANNELS 3 Xrotation Yrotation Zrotation
							JOINT LeftShoulder
							{
								OFFSET 15.263000 10.923401 -0.547700
								CHANNELS 3 Xrotation Yrotation Zrotation
								JOINT LeftArm
								{
									OFFSET 25.438599 -2.830597 -13.032500
									CHANNELS 3 Xrotation Yrotation Zrotation
									JOINT LeftForeArm
									{
										OFFSET 29.960503 0.000000 0.000000
										CHANNELS 3 Xrotation Yrotation Zrotation
										JOINT LeftHand
										{
											OFFSET 27.849251 0.000000 0.000000
											CHANNELS 3 Xrotation Yrotation Zrotation
											End Site
											{
												OFFSET 0 0 0
											}
										}
									}
								}
							}
						}
						JOINT RightShoulder_virtual
						{
							OFFSET 0.000000 0.000000 0.000000
							CHANNELS 3 Xrotation Yrotation Zrotation
							JOINT RightShoulder
							{
								OFFSET -15.263000 10.923401 -0.547700
								CHANNELS 3 Xrotation Yrotation Zrotation
								JOINT RightArm
								{
									OFFSET -25.438599 -2.830597 -13.032500
									CHANNELS 3 Xrotation Yrotation Zrotation
									JOINT RightForeArm
									{
										OFFSET -29.960503 0.000000 0.000000
										CHANNELS 3 Xrotation Yrotation Zrotation
										JOINT RightHand
										{
											OFFSET -27.849251 0.000000 0.000000
											CHANNELS 3 Xrotation Yrotation Zrotation
											End Site
											{
												OFFSET 0 0 0
											}
										}
									}
								}
							}
						}
					}
				}
			}
		}
	}
}
MOTION
Frames: 11
Frame Time: 0.03333333
-4.572050 120.648941 10.559122 0.000000 0.000000 0.000000 3.635593 -35.651320 3.449169 -91.356977 -26.306950 25.769728 81.577703 1.052007 7.955378 8.125120 -1.279240 0.028128 0.000000 0.000000 0.000000 3.635593 -35.651320 3.449169 -139.236780 -41.012831 -10.433180 117.365955 16.169737 -14.869329 34.775949 5.270603 34.358843 0.000000 0.000000 0.000000 3.635593 -35.651320 3.449169 0.000000 -0.000001 0.000000 31.678127 -6.218031 -9.573795 14.129379 0.964740 -3.082677 0.000000 0.000000 0.000000 14.083574 0.916920 -3.297919 -2.089166 4.124735 -2.779633 0.000000 0.000000 0.000000 14.083574 0.916920 -3.297919 11.474046 -16.374141 4.408426 -62.668789 -4.844739 -3.758214 45.767646 -24.019405 29.511130 0.000000 0.000000 0.000000 14.083574 0.916920 -3.297919 18.189202 24.092150 -9.603804 -33.453126 6.374205 2.980964 -41.939226 39.311140 29.275895 0.000000 0.000000 0.000000 
-4.564065 120.632141 10.515747 0.000000 0.000000 0.000000 3.659718 -35.757181 3.502001 -91.356731 -26.313224 25.799008 81.542077 0.975232 7.923334 8.188590 -1.154910 -0.077183 0.000000 0.000000 0.000000 3.659718 -35.757181 3.502001 -139.058676 -41.039659 -10.454677 117.275291 16.216080 -14.871835 34.626976 5.219803 34.272926 0.000000 0.000000 0.000000 3.659718 -35.757181 3.502001 0.000000 -0.000004 0.000000 31.683738 -6.229481 -9.584331 14.124492 0.962690 -3.082691 0.000000 0.000000 0.000000 14.081437 0.915140 -3.297783 -2.081894 4.130117 -2.780950 0.000000 0.000000 0.000000 14.081437 0.915140 -3.297783 11.372203 -16.443315 3.967046 -62.208065 -4.571397 -3.790334 45.710467 -23.896279 29.381220 0.000000 0.000000 0.000000 14.081437 0.915140 -3.297783 18.029159 24.259191 -9.213512 -32.985545 6.584515 2.975911 -41.769803 39.073685 29.004699 0.000000 0.000000 0.000000 
-4.555941 120.617783 10.463593 0.000000 0.000000 0.000000 3.684853 -35.849409 3.558035 -91.343897 -26.278564 25.806965 81.508636 0.952458 7.910379 8.142462 -1.065812 -0.114893 0.000000 0.000000 0.000000 3.684853 -35.849409 3.558035 -138.849358 -41.073954 -10.466997 117.179900 16.281573 -14.876663 34.445867 5.159598 34.181873 0.000000 0.000000 0.000000 3.684853 -35.849409 3.558035 0.000000 0.000000 0.000000 31.675941 -6.242598 -9.592646 14.121944 0.960002 -3.082259 0.000000 0.000000 0.000000 14.068815 0.912810 -3.297121 -2.076836 4.135820 -2.778969 0.000000 0.000000 0.000000 14.068815 0.912810 -3.297121 11.267117 -16.494268 3.552181 -61.836373 -4.277147 -3.867885 45.655279 -23.778470 29.256671 0.000000 0.000000 0.000000 14.068815 0.912810 -3.297121 17.871448 24.380049 -8.840627 -32.509668 6.730320 2.966674 -41.608075 38.845157 28.745695 0.000000 0.000000 0.000000 
-4.542413 120.597832 10.417566 0.000000 0.000000 0.000000 3.711273 -35.922984 3.611438 -91.320592 -26.265072 25.826540 81.436270 0.932353 7.905439 8.171074 -1.017263 -0.200360 0.000000 0.000000 0.000000 3.711273 -35.922984 3.611438 -138.627623 -41.079476 -10.471273 117.086873 16.322282 -14.878274 34.266048 5.105110 34.135141 0.000000 0.000000 0.000000 3.711273 -35.922984 3.611438 0.000000 0.000001 0.000000 31.662448 -6.250867 -9.599267 14.106479 0.954765 -3.080995 0.000000 0.000000 0.000000 14.049175 0.908809 -3.295738 -2.067981 4.141226 -2.777462 0.000000 0.000000 0.000000 14.049175 0.908809 -3.295738 11.178832 -16.526061 3.162650 -61.569436 -3.861267 -3.799268 45.619725 -23.701742 29.176943 0.000000 0.000000 0.000000 14.049175 0.908809 -3.295738 17.715216 24.468461 -8.495868 -32.128855 6.751245 2.910639 -41.451431 38.621380 28.494036 0.000000 0.000000 0.000000 
-4.531020 120.580292 10.369881 0.000000 0.000000 0.000000 3.738630 -35.998147 3.668285 -91.277685 -26.227112 25.848472 81.365564 0.901786 7.893827 8.134619 -0.951486 -0.284666 0.000000 0.000000 0.000000 3.738630 -35.998147 3.668285 -138.398648 -41.108118 -10.470839 116.991360 16.382834 -14.882134 34.092206 5.043616 34.056662 0.000000 0.000000 0.000000 3.738630 -35.998147 3.668285 0.000000 -0.000002 0.000000 31.645916 -6.259864 -9.602162 14.084170 0.946256 -3.078776 0.000000 0.000000 0.000000 14.024736 0.902261 -3.293464 -2.067270 4.149693 -2.773353 0.000000 0.000000 0.000000 14.024736 0.902261 -3.293464 11.087249 -16.530108 2.819712 -61.258853 -3.422804 -3.756280 45.583532 -23.623765 29.096158 0.000000 0.000000 0.000000 14.024736 0.902261 -3.293464 17.522806 24.569657 -8.065060 -31.766588 6.787546 2.888678 -41.306286 38.411765 28.260084 0.000000 0.000000 0.000000 
-4.517221 120.557152 10.328974 0.000000 0.000000 0.000000 3.766784 -36.044264 3.721425 -91.239880 -26.198049 25.851078 81.257852 0.937397 7.914445 8.168687 -0.982800 -0.328928 0.000000 0.000000 0.000000 3.766784 -36.044264 3.721425 -138.161558 -41.094933 -10.475833 116.903004 16.443406 -14.883985 33.890576 4.992998 34.048554 0.000000 0.000000 0.000000 3.766784 -36.044264 3.721425 0.000000 -0.000002 0.000000 31.625039 -6.265035 -9.602074 14.055858 0.934645 -3.075687 0.000000 0.000000 0.000000 13.995683 0.893356 -3.290323 -2.058338 4.158340 -2.767453 0.000000 0.000000 0.000000 13.995683 0.893356 -3.290323 10.988274 -16.524917 2.425654 -60.975250 -2.925639 -3.672637 45.549060 -23.549471 29.019558 0.000000 0.000000 0.000000 13.995683 0.893356 -3.290323 17.350882 24.652296 -7.676955 -31.331048 6.716266 2.813166 -41.168521 38.210742 28.037380 0.000000 0.000000 0.000000 
-4.507222 120.538055 10.284103 0.000000 0.000000 0.000000 3.795940 -36.087366 3.779072 -91.186488 -26.143717 25.843482 81.168527 1.011329 7.949945 8.095456 -1.023342 -0.347191 0.000000 0.000000 0.000000 3.795940 -36.087366 3.779072 -137.909893 -41.109010 -10.470023 116.811084 16.524335 -14.889189 33.690902 4.935939 34.014998 0.000000 0.000000 0.000000 3.795940 -36.087366 3.779072 0.000000 -0.000002 0.000000 31.598586 -6.273115 -9.603170 14.021887 0.921091 -3.071937 0.000000 0.000000 0.000000 13.962281 0.883283 -3.285273 -2.062353 4.170059 -2.763347 0.000000 0.000000 0.000000 13.962281 0.883283 -3.285273 10.892965 -16.486470 2.082171 -60.703491 -2.446169 -3.677434 45.522791 -23.492939 28.962338 0.000000 0.000000 0.000000 13.962281 0.883283 -3.285273 17.154416 24.738913 -7.233023 -30.927445 6.665489 2.774252 -41.041377 38.023530 27.831313 0.000000 0.000000 0.000000 
-4.498533 120.519051 10.236242 0.000000 0.000000 0.000000 3.825717 -36.132025 3.836679 -91.116267 -26.085911 25.848496 81.054640 1.098121 7.996639 8.062500 -1.030702 -0.397014 0.000000 0.000000 0.000000 3.825717 -36.132025 3.836679 -137.656930 -41.102559 -10.463605 116.715762 16.573031 -14.891768 33.491191 4.876553 33.991440 0.000000 0.000000 0.000000 3.825717 -36.132025 3.836679 0.000000 -0.000001 0.000000 31.564824 -6.276404 -9.604673 13.983013 0.907443 -3.067995 0.000000 0.000000 0.000000 13.924800 0.871619 -3.279941 -2.060197 4.177780 -2.753727 0.000000 0.000000 0.000000 13.924800 0.871619 -3.279941 10.801586 -16.429597 1.710626 -60.431970 -1.893964 -3.604735 45.518539 -23.484367 28.956833 0.000000 0.000000 0.000000 13.924800 0.871619 -3.279941 16.944898 24.824121 -6.754821 -30.570752 6.505318 2.695922 -40.922590 37.846901 27.638183 0.000000 0.000000 0.000000 
-4.495763 120.505005 10.183510 0.000000 0.000000 0.000000 3.855446 -36.171084 3.897776 -91.042358 -25.981599 25.825254 80.964359 1.254374 8.068566 7.921267 -1.051006 -0.359633 0.000000 0.000000 0.000000 3.855446 -36.171084 3.897776 -137.392342 -41.114184 -10.449693 116.613432 16.632767 -14.897879 33.290762 4.822945 33.948981 0.000000 0.000000 0.000000 3.855446 -36.171084 3.897776 0.000000 0.000000 0.000000 31.521986 -6.283382 -9.605603 13.939563 0.894849 -3.064078 0.000000 0.000000 0.000000 13.883521 0.860884 -3.274864 -2.060921 4.186301 -2.741716 0.000000 0.000000 0.000000 13.883521 0.860884 -3.274864 10.735041 -16.337290 1.386317 -60.173338 -1.363574 -3.614973 45.514806 -23.476707 28.951942 0.000000 0.000000 0.000000 13.883521 0.860884 -3.274864 16.731838 24.898374 -6.280344 -30.228426 6.296629 2.609976 -40.812163 37.681334 27.458122 0.000000 0.000000 0.000000 
-4.492974 120.488647 10.137611 0.000000 0.000000 0.000000 3.885784 -36.213205 3.957131 -90.952561 -25.899925 25.815841 80.842904 1.394554 8.138184 7.837401 -1.118959 -0.368828 0.000000 0.000000 0.000000 3.885784 -36.213205 3.957131 -137.145253 -41.109000 -10.439704 116.521907 16.686241 -14.901320 33.082510 4.768131 33.934313 0.000000 0.000000 0.000000 3.885784 -36.213205 3.957131 0.000000 -0.000003 0.000000 31.469113 -6.284009 -9.605625 13.891771 0.884889 -3.059289 0.000000 0.000000 0.000000 13.838598 0.850500 -3.269837 -2.053420 4.191885 -2.731700 0.000000 0.000000 0.000000 13.838598 0.850500 -3.269837 10.655180 -16.221296 1.028748 -59.912083 -0.707140 -3.448640 45.511261 -23.470509 28.949043 0.000000 0.000000 0.000000 13.838598 0.850500 -3.269837 16.522856 24.957834 -5.822210 -29.896998 6.000258 2.493189 -40.709253 37.525862 27.289876 0.000000 0.000000 0.000000 
-4.497731 120.474792 10.087927 0.000000 0.000000 0.000000 3.916128 -36.252742 4.019262 -90.821463 -25.805751 25.972713 80.848662 0.153873 7.498288 7.669327 0.187181 -0.412114 0.000000 0.000000 0.000000 3.916128 -36.252742 4.019262 -136.920622 -41.131071 -10.432474 116.439371 16.735493 -14.906010 32.885062 4.709653 33.873435 0.000000 0.000000 0.000000 3.916128 -36.252742 4.019262 0.000000 -0.000001 0.000000 31.404445 -6.285094 -9.605380 13.829180 0.878559 -3.055083 0.000000 0.000000 0.000000 13.789072 0.840569 -3.264782 -2.045001 4.194977 -2.726232 0.000000 0.000000 0.000000 13.789072 0.840569 -3.264782 10.586205 -16.074446 0.690739 -59.669728 -0.103453 -3.407540 45.509069 -23.467673 28.949832 0.000000 0.000000 0.000000 13.789072 0.840569 -3.264782 16.299201 25.012675 -5.338983 -29.588499 5.724233 2.407800 -40.616178 37.384514 27.137545 0.000000 0.000000 0.000000 
